<?xml version="1.0" encoding="UTF-8" standalone="no"?><svg xmlns="http://www.w3.org/2000/svg" xmlns:xlink="http://www.w3.org/1999/xlink" contentStyleType="text/css" height="314px" preserveAspectRatio="none" style="width:423px;height:314px;background:#FFFFFF;" version="1.1" viewBox="0 0 423 314" width="423px" zoomAndPan="magnify"><defs/><g><!--MD5=[3fd616f346a44cd59a91eb10b19e157c]
class User--><g id="elem_User"><rect codeLine="9" fill="#F1F1F1" height="32" id="User" rx="2.5" ry="2.5" style="stroke:#181818;stroke-width:0.5;" width="61" x="7" y="141"/><ellipse cx="22" cy="157" fill="#ADD1B2" rx="11" ry="11" style="stroke:#181818;stroke-width:1.0;"/><path d="M24.7656,152.875 Q24.9219,152.6563 25.1094,152.5469 Q25.2969,152.4375 25.5156,152.4375 Q25.8906,152.4375 26.125,152.7031 Q26.3594,152.9531 26.3594,153.5625 L26.3594,155.0156 Q26.3594,155.625 26.125,155.8906 Q25.8906,156.1563 25.5156,156.1563 Q25.1719,156.1563 24.9688,155.9531 Q24.7656,155.7656 24.6563,155.25 Q24.6094,154.8906 24.4219,154.7031 Q24.0938,154.3281 23.4844,154.1094 Q22.875,153.8906 22.25,153.8906 Q21.4844,153.8906 20.8438,154.2188 Q20.2188,154.5469 19.7188,155.2969 Q19.2344,156.0469 19.2344,157.0781 L19.2344,158.1719 Q19.2344,159.4063 20.125,160.2344 Q21.0156,161.0469 22.6094,161.0469 Q23.5469,161.0469 24.2031,160.7969 Q24.5938,160.6406 25.0156,160.2031 Q25.2813,159.9375 25.4219,159.8594 Q25.5781,159.7813 25.7813,159.7813 Q26.1094,159.7813 26.3594,160.0469 Q26.625,160.2969 26.625,160.6406 Q26.625,160.9844 26.2813,161.3906 Q25.7813,161.9688 24.9844,162.2969 Q23.9063,162.75 22.6094,162.75 Q21.0938,162.75 19.8906,162.125 Q18.9063,161.625 18.2188,160.5625 Q17.5313,159.4844 17.5313,158.2031 L17.5313,157.0469 Q17.5313,155.7188 18.1406,154.5781 Q18.7656,153.4219 19.8594,152.8125 Q20.9531,152.1875 22.1875,152.1875 Q22.9219,152.1875 23.5625,152.3594 Q24.2188,152.5156 24.7656,152.875 Z " fill="#000000"/><text fill="#000000" font-family="sans-serif" font-size="14" lengthAdjust="spacing" textLength="29" x="36" y="161.8535">User</text></g><!--MD5=[2f01b1126ff33a0669651ec2488a5ef9]
class Password--><g id="elem_Password"><rect codeLine="10" fill="#F1F1F1" height="32" id="Password" rx="2.5" ry="2.5" style="stroke:#181818;stroke-width:0.5;" width="93" x="129.5" y="7"/><ellipse cx="144.5" cy="23" fill="#ADD1B2" rx="11" ry="11" style="stroke:#181818;stroke-width:1.0;"/><path d="M147.2656,18.875 Q147.4219,18.6563 147.6094,18.5469 Q147.7969,18.4375 148.0156,18.4375 Q148.3906,18.4375 148.625,18.7031 Q148.8594,18.9531 148.8594,19.5625 L148.8594,21.0156 Q148.8594,21.625 148.625,21.8906 Q148.3906,22.1563 148.0156,22.1563 Q147.6719,22.1563 147.4688,21.9531 Q147.2656,21.7656 147.1563,21.25 Q147.1094,20.8906 146.9219,20.7031 Q146.5938,20.3281 145.9844,20.1094 Q145.375,19.8906 144.75,19.8906 Q143.9844,19.8906 143.3438,20.2188 Q142.7188,20.5469 142.2188,21.2969 Q141.7344,22.0469 141.7344,23.0781 L141.7344,24.1719 Q141.7344,25.4063 142.625,26.2344 Q143.5156,27.0469 145.1094,27.0469 Q146.0469,27.0469 146.7031,26.7969 Q147.0938,26.6406 147.5156,26.2031 Q147.7813,25.9375 147.9219,25.8594 Q148.0781,25.7813 148.2813,25.7813 Q148.6094,25.7813 148.8594,26.0469 Q149.125,26.2969 149.125,26.6406 Q149.125,26.9844 148.7813,27.3906 Q148.2813,27.9688 147.4844,28.2969 Q146.4063,28.75 145.1094,28.75 Q143.5938,28.75 142.3906,28.125 Q141.4063,27.625 140.7188,26.5625 Q140.0313,25.4844 140.0313,24.2031 L140.0313,23.0469 Q140.0313,21.7188 140.6406,20.5781 Q141.2656,19.4219 142.3594,18.8125 Q143.4531,18.1875 144.6875,18.1875 Q145.4219,18.1875 146.0625,18.3594 Q146.7188,18.5156 147.2656,18.875 Z " fill="#000000"/><text fill="#000000" font-family="sans-serif" font-size="14" lengthAdjust="spacing" textLength="61" x="158.5" y="27.8535">Password</text></g><!--MD5=[f694847fc702e0723b49e5500a5c29a4]
class Username--><g id="elem_Username"><rect codeLine="11" fill="#F1F1F1" height="32" id="Username" rx="2.5" ry="2.5" style="stroke:#181818;stroke-width:0.5;" width="96" x="128" y="74"/><ellipse cx="143" cy="90" fill="#ADD1B2" rx="11" ry="11" style="stroke:#181818;stroke-width:1.0;"/><path d="M145.7656,85.875 Q145.9219,85.6563 146.1094,85.5469 Q146.2969,85.4375 146.5156,85.4375 Q146.8906,85.4375 147.125,85.7031 Q147.3594,85.9531 147.3594,86.5625 L147.3594,88.0156 Q147.3594,88.625 147.125,88.8906 Q146.8906,89.1563 146.5156,89.1563 Q146.1719,89.1563 145.9688,88.9531 Q145.7656,88.7656 145.6563,88.25 Q145.6094,87.8906 145.4219,87.7031 Q145.0938,87.3281 144.4844,87.1094 Q143.875,86.8906 143.25,86.8906 Q142.4844,86.8906 141.8438,87.2188 Q141.2188,87.5469 140.7188,88.2969 Q140.2344,89.0469 140.2344,90.0781 L140.2344,91.1719 Q140.2344,92.4063 141.125,93.2344 Q142.0156,94.0469 143.6094,94.0469 Q144.5469,94.0469 145.2031,93.7969 Q145.5938,93.6406 146.0156,93.2031 Q146.2813,92.9375 146.4219,92.8594 Q146.5781,92.7813 146.7813,92.7813 Q147.1094,92.7813 147.3594,93.0469 Q147.625,93.2969 147.625,93.6406 Q147.625,93.9844 147.2813,94.3906 Q146.7813,94.9688 145.9844,95.2969 Q144.9063,95.75 143.6094,95.75 Q142.0938,95.75 140.8906,95.125 Q139.9063,94.625 139.2188,93.5625 Q138.5313,92.4844 138.5313,91.2031 L138.5313,90.0469 Q138.5313,88.7188 139.1406,87.5781 Q139.7656,86.4219 140.8594,85.8125 Q141.9531,85.1875 143.1875,85.1875 Q143.9219,85.1875 144.5625,85.3594 Q145.2188,85.5156 145.7656,85.875 Z " fill="#000000"/><text fill="#000000" font-family="sans-serif" font-size="14" lengthAdjust="spacing" textLength="64" x="157" y="94.8535">Username</text></g><!--MD5=[78bec0fde86ad92ec1dc3fb343b83709]
class Email--><g id="elem_Email"><rect codeLine="12" fill="#F1F1F1" height="32" id="Email" rx="2.5" ry="2.5" style="stroke:#181818;stroke-width:0.5;" width="66" x="143" y="141"/><ellipse cx="158" cy="157" fill="#ADD1B2" rx="11" ry="11" style="stroke:#181818;stroke-width:1.0;"/><path d="M160.7656,152.875 Q160.9219,152.6563 161.1094,152.5469 Q161.2969,152.4375 161.5156,152.4375 Q161.8906,152.4375 162.125,152.7031 Q162.3594,152.9531 162.3594,153.5625 L162.3594,155.0156 Q162.3594,155.625 162.125,155.8906 Q161.8906,156.1563 161.5156,156.1563 Q161.1719,156.1563 160.9688,155.9531 Q160.7656,155.7656 160.6563,155.25 Q160.6094,154.8906 160.4219,154.7031 Q160.0938,154.3281 159.4844,154.1094 Q158.875,153.8906 158.25,153.8906 Q157.4844,153.8906 156.8438,154.2188 Q156.2188,154.5469 155.7188,155.2969 Q155.2344,156.0469 155.2344,157.0781 L155.2344,158.1719 Q155.2344,159.4063 156.125,160.2344 Q157.0156,161.0469 158.6094,161.0469 Q159.5469,161.0469 160.2031,160.7969 Q160.5938,160.6406 161.0156,160.2031 Q161.2813,159.9375 161.4219,159.8594 Q161.5781,159.7813 161.7813,159.7813 Q162.1094,159.7813 162.3594,160.0469 Q162.625,160.2969 162.625,160.6406 Q162.625,160.9844 162.2813,161.3906 Q161.7813,161.9688 160.9844,162.2969 Q159.9063,162.75 158.6094,162.75 Q157.0938,162.75 155.8906,162.125 Q154.9063,161.625 154.2188,160.5625 Q153.5313,159.4844 153.5313,158.2031 L153.5313,157.0469 Q153.5313,155.7188 154.1406,154.5781 Q154.7656,153.4219 155.8594,152.8125 Q156.9531,152.1875 158.1875,152.1875 Q158.9219,152.1875 159.5625,152.3594 Q160.2188,152.5156 160.7656,152.875 Z " fill="#000000"/><text fill="#000000" font-family="sans-serif" font-size="14" lengthAdjust="spacing" textLength="34" x="172" y="161.8535">Email</text></g><!--MD5=[a3638c1e5b65d287ecad7f06f5c0f212]
class Role--><g id="elem_Role"><rect codeLine="13" fill="#F1F1F1" height="32" id="Role" rx="2.5" ry="2.5" style="stroke:#181818;stroke-width:0.5;" width="61" x="145.5" y="208"/><ellipse cx="160.5" cy="224" fill="#ADD1B2" rx="11" ry="11" style="stroke:#181818;stroke-width:1.0;"/><path d="M163.2656,219.875 Q163.4219,219.6563 163.6094,219.5469 Q163.7969,219.4375 164.0156,219.4375 Q164.3906,219.4375 164.625,219.7031 Q164.8594,219.9531 164.8594,220.5625 L164.8594,222.0156 Q164.8594,222.625 164.625,222.8906 Q164.3906,223.1563 164.0156,223.1563 Q163.6719,223.1563 163.4688,222.9531 Q163.2656,222.7656 163.1563,222.25 Q163.1094,221.8906 162.9219,221.7031 Q162.5938,221.3281 161.9844,221.1094 Q161.375,220.8906 160.75,220.8906 Q159.9844,220.8906 159.3438,221.2188 Q158.7188,221.5469 158.2188,222.2969 Q157.7344,223.0469 157.7344,224.0781 L157.7344,225.1719 Q157.7344,226.4063 158.625,227.2344 Q159.5156,228.0469 161.1094,228.0469 Q162.0469,228.0469 162.7031,227.7969 Q163.0938,227.6406 163.5156,227.2031 Q163.7813,226.9375 163.9219,226.8594 Q164.0781,226.7813 164.2813,226.7813 Q164.6094,226.7813 164.8594,227.0469 Q165.125,227.2969 165.125,227.6406 Q165.125,227.9844 164.7813,228.3906 Q164.2813,228.9688 163.4844,229.2969 Q162.4063,229.75 161.1094,229.75 Q159.5938,229.75 158.3906,229.125 Q157.4063,228.625 156.7188,227.5625 Q156.0313,226.4844 156.0313,225.2031 L156.0313,224.0469 Q156.0313,222.7188 156.6406,221.5781 Q157.2656,220.4219 158.3594,219.8125 Q159.4531,219.1875 160.6875,219.1875 Q161.4219,219.1875 162.0625,219.3594 Q162.7188,219.5156 163.2656,219.875 Z " fill="#000000"/><text fill="#000000" font-family="sans-serif" font-size="14" lengthAdjust="spacing" textLength="29" x="174.5" y="228.8535">Role</text></g><!--MD5=[6732ca198d38e32a734c0ca696b09a6a]
class RoleDescription--><g id="elem_RoleDescription"><rect codeLine="14" fill="#F1F1F1" height="32" id="RoleDescription" rx="2.5" ry="2.5" style="stroke:#181818;stroke-width:0.5;" width="132" x="284" y="141"/><ellipse cx="299" cy="157" fill="#ADD1B2" rx="11" ry="11" style="stroke:#181818;stroke-width:1.0;"/><path d="M301.7656,152.875 Q301.9219,152.6563 302.1094,152.5469 Q302.2969,152.4375 302.5156,152.4375 Q302.8906,152.4375 303.125,152.7031 Q303.3594,152.9531 303.3594,153.5625 L303.3594,155.0156 Q303.3594,155.625 303.125,155.8906 Q302.8906,156.1563 302.5156,156.1563 Q302.1719,156.1563 301.9688,155.9531 Q301.7656,155.7656 301.6563,155.25 Q301.6094,154.8906 301.4219,154.7031 Q301.0938,154.3281 300.4844,154.1094 Q299.875,153.8906 299.25,153.8906 Q298.4844,153.8906 297.8438,154.2188 Q297.2188,154.5469 296.7188,155.2969 Q296.2344,156.0469 296.2344,157.0781 L296.2344,158.1719 Q296.2344,159.4063 297.125,160.2344 Q298.0156,161.0469 299.6094,161.0469 Q300.5469,161.0469 301.2031,160.7969 Q301.5938,160.6406 302.0156,160.2031 Q302.2813,159.9375 302.4219,159.8594 Q302.5781,159.7813 302.7813,159.7813 Q303.1094,159.7813 303.3594,160.0469 Q303.625,160.2969 303.625,160.6406 Q303.625,160.9844 303.2813,161.3906 Q302.7813,161.9688 301.9844,162.2969 Q300.9063,162.75 299.6094,162.75 Q298.0938,162.75 296.8906,162.125 Q295.9063,161.625 295.2188,160.5625 Q294.5313,159.4844 294.5313,158.2031 L294.5313,157.0469 Q294.5313,155.7188 295.1406,154.5781 Q295.7656,153.4219 296.8594,152.8125 Q297.9531,152.1875 299.1875,152.1875 Q299.9219,152.1875 300.5625,152.3594 Q301.2188,152.5156 301.7656,152.875 Z " fill="#000000"/><text fill="#000000" font-family="sans-serif" font-size="14" lengthAdjust="spacing" textLength="100" x="313" y="161.8535">RoleDescription</text></g><!--MD5=[57d5894f27b486c3830941360c456336]
class RoleId--><g id="elem_RoleId"><rect codeLine="15" fill="#F1F1F1" height="32" id="RoleId" rx="2.5" ry="2.5" style="stroke:#181818;stroke-width:0.5;" width="72" x="314" y="208"/><ellipse cx="329" cy="224" fill="#ADD1B2" rx="11" ry="11" style="stroke:#181818;stroke-width:1.0;"/><path d="M331.7656,219.875 Q331.9219,219.6563 332.1094,219.5469 Q332.2969,219.4375 332.5156,219.4375 Q332.8906,219.4375 333.125,219.7031 Q333.3594,219.9531 333.3594,220.5625 L333.3594,222.0156 Q333.3594,222.625 333.125,222.8906 Q332.8906,223.1563 332.5156,223.1563 Q332.1719,223.1563 331.9688,222.9531 Q331.7656,222.7656 331.6563,222.25 Q331.6094,221.8906 331.4219,221.7031 Q331.0938,221.3281 330.4844,221.1094 Q329.875,220.8906 329.25,220.8906 Q328.4844,220.8906 327.8438,221.2188 Q327.2188,221.5469 326.7188,222.2969 Q326.2344,223.0469 326.2344,224.0781 L326.2344,225.1719 Q326.2344,226.4063 327.125,227.2344 Q328.0156,228.0469 329.6094,228.0469 Q330.5469,228.0469 331.2031,227.7969 Q331.5938,227.6406 332.0156,227.2031 Q332.2813,226.9375 332.4219,226.8594 Q332.5781,226.7813 332.7813,226.7813 Q333.1094,226.7813 333.3594,227.0469 Q333.625,227.2969 333.625,227.6406 Q333.625,227.9844 333.2813,228.3906 Q332.7813,228.9688 331.9844,229.2969 Q330.9063,229.75 329.6094,229.75 Q328.0938,229.75 326.8906,229.125 Q325.9063,228.625 325.2188,227.5625 Q324.5313,226.4844 324.5313,225.2031 L324.5313,224.0469 Q324.5313,222.7188 325.1406,221.5781 Q325.7656,220.4219 326.8594,219.8125 Q327.9531,219.1875 329.1875,219.1875 Q329.9219,219.1875 330.5625,219.3594 Q331.2188,219.5156 331.7656,219.875 Z " fill="#000000"/><text fill="#000000" font-family="sans-serif" font-size="14" lengthAdjust="spacing" textLength="40" x="343" y="228.8535">RoleId</text></g><!--MD5=[a219e2ff7cd77b0d4705d4ba2ae8542d]
class UserId--><g id="elem_UserId"><rect codeLine="16" fill="#F1F1F1" height="32" id="UserId" rx="2.5" ry="2.5" style="stroke:#181818;stroke-width:0.5;" width="72" x="140" y="275"/><ellipse cx="155" cy="291" fill="#ADD1B2" rx="11" ry="11" style="stroke:#181818;stroke-width:1.0;"/><path d="M157.7656,286.875 Q157.9219,286.6563 158.1094,286.5469 Q158.2969,286.4375 158.5156,286.4375 Q158.8906,286.4375 159.125,286.7031 Q159.3594,286.9531 159.3594,287.5625 L159.3594,289.0156 Q159.3594,289.625 159.125,289.8906 Q158.8906,290.1563 158.5156,290.1563 Q158.1719,290.1563 157.9688,289.9531 Q157.7656,289.7656 157.6563,289.25 Q157.6094,288.8906 157.4219,288.7031 Q157.0938,288.3281 156.4844,288.1094 Q155.875,287.8906 155.25,287.8906 Q154.4844,287.8906 153.8438,288.2188 Q153.2188,288.5469 152.7188,289.2969 Q152.2344,290.0469 152.2344,291.0781 L152.2344,292.1719 Q152.2344,293.4063 153.125,294.2344 Q154.0156,295.0469 155.6094,295.0469 Q156.5469,295.0469 157.2031,294.7969 Q157.5938,294.6406 158.0156,294.2031 Q158.2813,293.9375 158.4219,293.8594 Q158.5781,293.7813 158.7813,293.7813 Q159.1094,293.7813 159.3594,294.0469 Q159.625,294.2969 159.625,294.6406 Q159.625,294.9844 159.2813,295.3906 Q158.7813,295.9688 157.9844,296.2969 Q156.9063,296.75 155.6094,296.75 Q154.0938,296.75 152.8906,296.125 Q151.9063,295.625 151.2188,294.5625 Q150.5313,293.4844 150.5313,292.2031 L150.5313,291.0469 Q150.5313,289.7188 151.1406,288.5781 Q151.7656,287.4219 152.8594,286.8125 Q153.9531,286.1875 155.1875,286.1875 Q155.9219,286.1875 156.5625,286.3594 Q157.2188,286.5156 157.7656,286.875 Z " fill="#000000"/><text fill="#000000" font-family="sans-serif" font-size="14" lengthAdjust="spacing" textLength="40" x="169" y="295.8535">UserId</text></g><!--MD5=[45c40070d26b32101cf9b7ab72916b9e]
class AccessLevel--><g id="elem_AccessLevel"><rect codeLine="17" fill="#F1F1F1" height="32" id="AccessLevel" rx="2.5" ry="2.5" style="stroke:#181818;stroke-width:0.5;" width="111" x="294.5" y="275"/><ellipse cx="309.5" cy="291" fill="#ADD1B2" rx="11" ry="11" style="stroke:#181818;stroke-width:1.0;"/><path d="M312.2656,286.875 Q312.4219,286.6563 312.6094,286.5469 Q312.7969,286.4375 313.0156,286.4375 Q313.3906,286.4375 313.625,286.7031 Q313.8594,286.9531 313.8594,287.5625 L313.8594,289.0156 Q313.8594,289.625 313.625,289.8906 Q313.3906,290.1563 313.0156,290.1563 Q312.6719,290.1563 312.4688,289.9531 Q312.2656,289.7656 312.1563,289.25 Q312.1094,288.8906 311.9219,288.7031 Q311.5938,288.3281 310.9844,288.1094 Q310.375,287.8906 309.75,287.8906 Q308.9844,287.8906 308.3438,288.2188 Q307.7188,288.5469 307.2188,289.2969 Q306.7344,290.0469 306.7344,291.0781 L306.7344,292.1719 Q306.7344,293.4063 307.625,294.2344 Q308.5156,295.0469 310.1094,295.0469 Q311.0469,295.0469 311.7031,294.7969 Q312.0938,294.6406 312.5156,294.2031 Q312.7813,293.9375 312.9219,293.8594 Q313.0781,293.7813 313.2813,293.7813 Q313.6094,293.7813 313.8594,294.0469 Q314.125,294.2969 314.125,294.6406 Q314.125,294.9844 313.7813,295.3906 Q313.2813,295.9688 312.4844,296.2969 Q311.4063,296.75 310.1094,296.75 Q308.5938,296.75 307.3906,296.125 Q306.4063,295.625 305.7188,294.5625 Q305.0313,293.4844 305.0313,292.2031 L305.0313,291.0469 Q305.0313,289.7188 305.6406,288.5781 Q306.2656,287.4219 307.3594,286.8125 Q308.4531,286.1875 309.6875,286.1875 Q310.4219,286.1875 311.0625,286.3594 Q311.7188,286.5156 312.2656,286.875 Z " fill="#000000"/><text fill="#000000" font-family="sans-serif" font-size="14" lengthAdjust="spacing" textLength="79" x="323.5" y="295.8535">AccessLevel</text></g><!--MD5=[485c91e2a35e94c6b8f5d2786d2293a5]
link User to UserId--><g id="link_User_UserId"><path codeLine="20" d="M58.7436,182.5262 C58.7436,182.5262 102.5,234.02 128,257 C131.85,260.47 136.04,263.91 140.29,267.2 " fill="none" id="User-UserId" style="stroke:#181818;stroke-width:1.0;"/><polygon fill="#181818" points="150.81,275,145.9628,266.4265,146.7936,272.022,141.1981,272.8528,150.81,275" style="stroke:#181818;stroke-width:1.0;"/><line style="stroke:#181818;stroke-width:1.0;" x1="146.7936" x2="140.36" y1="272.022" y2="267.255"/><polygon fill="#181818" points="51.18,173.21,51.8564,180.3893,58.7436,182.5262,58.0672,175.3469,51.18,173.21" style="stroke:#181818;stroke-width:1.0;"/><text fill="#000000" font-family="sans-serif" font-size="13" lengthAdjust="spacing" textLength="7" x="133.2306" y="264.3838">1</text></g><!--MD5=[5ab1f46e477a8163e64d30b24bef4255]
link User to Password--><g id="link_User_Password"><path codeLine="21" d="M58.2854,131.5229 C58.2854,131.5229 102.11,79.12 128,56 C131.45,52.92 135.2,49.87 139.01,46.94 " fill="none" id="User-Password" style="stroke:#181818;stroke-width:1.0;"/><polygon fill="#181818" points="149.79,39.09,140.16,41.1548,145.7482,42.0335,144.8696,47.6217,149.79,39.09" style="stroke:#181818;stroke-width:1.0;"/><line style="stroke:#181818;stroke-width:1.0;" x1="145.7482" x2="139.28" y1="42.0335" y2="46.75"/><polygon fill="#181818" points="50.81,140.91,57.6768,138.7082,58.2854,131.5229,51.4187,133.7246,50.81,140.91" style="stroke:#181818;stroke-width:1.0;"/><text fill="#000000" font-family="sans-serif" font-size="13" lengthAdjust="spacing" textLength="7" x="132.5772" y="58.8857">1</text></g><!--MD5=[dbc364445409b51c9b407d19a07b4adf]
link User to Email--><g id="link_User_Email"><path codeLine="22" d="M80.12,157 C80.12,157 113.88,157 129.45,157 " fill="none" id="User-Email" style="stroke:#181818;stroke-width:1.0;"/><polygon fill="#181818" points="142.58,157,133.58,153,137.58,157,133.58,161,142.58,157" style="stroke:#181818;stroke-width:1.0;"/><line style="stroke:#181818;stroke-width:1.0;" x1="137.58" x2="129.58" y1="157" y2="157"/><polygon fill="#181818" points="68.12,157,74.12,161,80.12,157,74.12,153,68.12,157" style="stroke:#181818;stroke-width:1.0;"/><text fill="#000000" font-family="sans-serif" font-size="13" lengthAdjust="spacing" textLength="7" x="127.9653" y="170.2663">1</text></g><!--MD5=[9f2010a726ff0d425086a1b968f0297b]
link User to Username--><g id="link_User_Username"><path codeLine="23" d="M78.8924,137.1727 C78.8924,137.1727 114.02,119.93 130.19,112 " fill="none" id="User-Username" style="stroke:#181818;stroke-width:1.0;"/><polygon fill="#181818" points="142.09,106.15,132.2483,106.5247,137.6015,108.353,135.7731,113.7063,142.09,106.15" style="stroke:#181818;stroke-width:1.0;"/><line style="stroke:#181818;stroke-width:1.0;" x1="137.6015" x2="130.425" y1="108.353" y2="111.885"/><polygon fill="#181818" points="68.12,142.46,75.2686,143.4071,78.8924,137.1727,71.7438,136.2256,68.12,142.46" style="stroke:#181818;stroke-width:1.0;"/><text fill="#000000" font-family="sans-serif" font-size="13" lengthAdjust="spacing" textLength="7" x="122.6979" y="125.6737">1</text></g><!--MD5=[70c37dc9bfbc8656942103c36f1181e4]
link User to Role--><g id="link_User_Role"><path codeLine="24" d="M78.8924,176.8273 C78.8924,176.8273 116.63,195.35 133.61,203.69 " fill="none" id="User-Role" style="stroke:#181818;stroke-width:1.0;"/><polygon fill="#181818" points="145.44,209.49,139.1231,201.9337,140.9515,207.287,135.5983,209.1153,145.44,209.49" style="stroke:#181818;stroke-width:1.0;"/><line style="stroke:#181818;stroke-width:1.0;" x1="140.9515" x2="133.765" y1="207.287" y2="203.765"/><polygon fill="none" points="68.12,171.54,71.7438,177.7744,78.8924,176.8273,75.2686,170.5929,68.12,171.54" style="stroke:#181818;stroke-width:1.0;"/><text fill="#000000" font-family="sans-serif" font-size="13" lengthAdjust="spacing" textLength="16" x="121.487" y="219.7636">1.*</text></g><!--MD5=[571b3d37fd0513ad20b623f7f7500ce8]
link Role to RoleId--><g id="link_Role_RoleId"><path codeLine="25" d="M218.57,224 C218.57,224 275.24,224 300.74,224 " fill="none" id="Role-RoleId" style="stroke:#181818;stroke-width:1.0;"/><polygon fill="#181818" points="313.89,224,304.89,220,308.89,224,304.89,228,313.89,224" style="stroke:#181818;stroke-width:1.0;"/><line style="stroke:#181818;stroke-width:1.0;" x1="308.89" x2="300.89" y1="224" y2="224"/><polygon fill="#181818" points="206.57,224,212.57,228,218.57,224,212.57,220,206.57,224" style="stroke:#181818;stroke-width:1.0;"/><text fill="#000000" font-family="sans-serif" font-size="13" lengthAdjust="spacing" textLength="7" x="299.0918" y="237.1982">1</text></g><!--MD5=[ea687d6984d26a6f9dbb8612cdc09f9d]
link Role to RoleDescription--><g id="link_Role_RoleDescription"><path codeLine="26" d="M217.7531,208.1281 C217.7531,208.1281 270.99,187.39 295.77,177.73 " fill="none" id="Role-RoleDescription" style="stroke:#181818;stroke-width:1.0;"/><polygon fill="#181818" points="307.92,173,298.0821,172.5362,303.2604,174.8133,300.9833,179.9916,307.92,173" style="stroke:#181818;stroke-width:1.0;"/><line style="stroke:#181818;stroke-width:1.0;" x1="303.2604" x2="295.81" y1="174.8133" y2="177.72"/><polygon fill="#181818" points="206.57,212.48,213.6122,214.0317,217.7531,208.1281,210.7109,206.5764,206.57,212.48" style="stroke:#181818;stroke-width:1.0;"/><text fill="#000000" font-family="sans-serif" font-size="13" lengthAdjust="spacing" textLength="7" x="285.2519" y="192.7648">1</text></g><!--MD5=[762608a1090083e7b949001c5a837011]
link Role to AccessLevel--><g id="link_Role_AccessLevel"><path codeLine="27" d="M217.7531,239.8719 C217.7531,239.8719 270.99,260.61 295.77,270.27 " fill="none" id="Role-AccessLevel" style="stroke:#181818;stroke-width:1.0;"/><polygon fill="#181818" points="307.92,275,300.9833,268.0084,303.2604,273.1867,298.0821,275.4638,307.92,275" style="stroke:#181818;stroke-width:1.0;"/><line style="stroke:#181818;stroke-width:1.0;" x1="303.2604" x2="295.81" y1="273.1867" y2="270.28"/><polygon fill="#181818" points="206.57,235.52,210.7109,241.4236,217.7531,239.8719,213.6122,233.9683,206.57,235.52" style="stroke:#181818;stroke-width:1.0;"/><text fill="#000000" font-family="sans-serif" font-size="13" lengthAdjust="spacing" textLength="7" x="284.1124" y="264.3838">1</text></g><!--MD5=[9d38e262f7beddb5e69dff28ad7d1b90]
@startuml
'https://plantuml.com/class-diagram

hide methods
hide fields

left to right direction


class User
class Password
class Username
class Email
class Role
class RoleDescription
class RoleId
class UserId
class AccessLevel


User *- -> "1"UserId
User *- -> "1"Password
User *- ->"1"Email
User *- -> "1"Username
User o- ->"1.*"Role
Role *- ->"1"RoleId
Role *- ->"1"RoleDescription
Role *- ->"1"AccessLevel


@enduml

@startuml

hide methods
hide fields

left to right direction


class User
class Password
class Username
class Email
class Role
class RoleDescription
class RoleId
class UserId
class AccessLevel


User *- -> "1"UserId
User *- -> "1"Password
User *- ->"1"Email
User *- -> "1"Username
User o- ->"1.*"Role
Role *- ->"1"RoleId
Role *- ->"1"RoleDescription
Role *- ->"1"AccessLevel


@enduml

PlantUML version 1.2022.7(Mon Aug 22 18:01:30 WEST 2022)
(GPL source distribution)
Java Runtime: OpenJDK Runtime Environment
JVM: OpenJDK 64-Bit Server VM
Default Encoding: Cp1252
Language: pt
Country: PT
--></g></svg>